# xmcd
#
# Track frame offsets:
#	150
#	11330
#	24742
#	38307
#	50355
#	62010
#	76205
#	89040
#	101890
#	114175
#	127590
#	139810
#	151090
#	164180
#	177772
#	190245
#	203452
#	216547
#	230025
#	242000
#	255762
#	268632
#
# Disc length: 3758 seconds
#
# Revision: 1
# Processed by: cddbd v1.5.1PL0 Copyright (c) Steve Scherf et al.
# Submitted via: CDmax 2.0
#
DISCID=1e0eac16
DTITLE=Amos Milburn - Bad Bad Whiskey 1946/1950
DYEAR=2000
DGENRE=Blues
TTITLE0=Amos Blues
TTITLE1=After Midnite
TTITLE2=Down the Road Apiece
TTITLE3=Operation Blues
TTITLE4=Money Hustlin' Woman
TTITLE5=Bye Bye Boogie
TTITLE6=Hold Me Baby
TTITLE7=Chicken Shack Boogie
TTITLE8=I Love Her
TTITLE9=Empty Arms Blues
TTITLE10=In the Middle of the Night
TTITLE11=Jitterbug Fashion Parade
TTITLE12=My Luck is Bound to Change
TTITLE13=Walkin' Blues
TTITLE14=Roomin' House Boogie
TTITLE15=Let's Make Christmas Merry, Baby
TTITLE16=Square Dance Boogie
TTITLE17=She's Gone Again
TTITLE18=Let's Rock Awhile
TTITLE19=Two Years of Torture
TTITLE20=I'm Gonna Tell My Mama
TTITLE21=Bad, Bad Whiskey
EXTD=Amos Milburn: piano, vox;\n- with the following musicians (track numbers
EXTD=) -\nOscar Lee Bradley: drums (19-20);\nJohnny Brown: guitar (16-18);\nH
EXTD=arper Cosby: bass (16-18, 21-22);\nMaxwell Davis: tenor saxophone (1, 4-
EXTD=13, 15-21);\nRalph Hamilton: bass (11-15, 19-20);\nFrank Haywood: guita
EXTD=r (possibly 10);\nEldeen McIntosh: drums (21-22);\nCharles 'Chuck' Norri
EXTD=s: guitar (14-15, 21-22, and possibly 4);\nGene Philips: guitar (11-13
EXTD=, 19-20, and possibly 6);\nJesse Sailes: drums (11-13);\nWillie Simpson
EXTD=, Jr: baritone saxophone (16-17, 21);\nWillie Smith: tenor saxophone (16
EXTD=17, 21);\nCalvin Vaughn: drums (16-18);\nDon Wilkerson: tenor saxophon
EXTD=e (16-18, 21);\nLee Young: drums (14-15).\n\nTracks 1-8 were originall
EXTD=y released eponymously.\nTracks 9-22 were originally released as 'Amos M
EXTD=ilburn and his Aladdin Chickenshakers.'
EXTT0=Recorded in Los Angeles on September 12, 1946.\nRhythm section (guitar
EXTT0=, bass, drums) unidentified.
EXTT1=Recorded in Los Angeles on September 12, 1946.\nRhythm section (guitar
EXTT1=, bass, drums) unidentified.
EXTT2=Recorded in Los Angeles on September 12, 1946.\nRhythm section (guitar
EXTT2=, bass, drums) unidentified.
EXTT3=Recorded in Los Angeles on December 13, 1946.\nRhythm section (bass, dr
EXTT3=ums) unidentified,\nwith an unidentified female vocalist as well.
EXTT4=Recorded in Los Angeles on April 26, 1947.\nRhythm section (guitar, bas
EXTT4=s) unidentified.
EXTT5=Recorded in Los Angeles on October 27, 1947.\nRhythm section (bass, dru
EXTT5=ms) unidentified.
EXTT6=Recorded in Los Angeles on November 19, 1947.\nRhythm section (guitar
EXTT6=, bass, drums) unidentified.
EXTT7=Recorded in Los Angeles on November 19, 1947.\nRhythm section (guitar
EXTT7=, bass, drums) unidentified.
EXTT8=Recorded in Los Angeles on December 11, 1947.\nRhythm section (guitar
EXTT8=, bass, drums) unidentified.
EXTT9=Recorded in Los Angeles on December 18, 1947.\nRhythm section (bass, dr
EXTT9=ums) unidentified.
EXTT10=Recorded in Los Angeles on February 28, 1949.
EXTT11=Recorded in Los Angeles on February 28, 1949.
EXTT12=Recorded in Los Angeles on February 28, 1949.
EXTT13=Recorded in Los Angeles on July 13, 1949.
EXTT14=Recorded in Los Angeles on July 13, 1949.
EXTT15=Recorded in Los Angeles on October 1, 1949.
EXTT16=Recorded in Los Angeles on December 19, 1949.\nWith unidentified ban
EXTT16=d members on backing vocals.
EXTT17=Recorded in Los Angeles on January 4, 1950.
EXTT18=Recorded in Los Angeles on May 18, 1950.
EXTT19=Recorded in Los Angeles on May 18, 1950.
EXTT20=Recorded in Los Angeles on September 21, 1950.
EXTT21=Recorded in Los Angeles on September 21, 1950.
PLAYORDER=
